<?xml version="1.0" standalone="no"?><!DOCTYPE svg PUBLIC "-//W3C//DTD SVG 1.1//EN" "http://www.w3.org/Graphics/SVG/1.1/DTD/svg11.dtd"><svg t="1650869109333" class="icon" viewBox="0 0 1024 1024" version="1.1" xmlns="http://www.w3.org/2000/svg" p-id="4593" xmlns:xlink="http://www.w3.org/1999/xlink" width="300" height="300"><defs><style type="text/css">@font-face { font-family: feedback-iconfont; src: url("//at.alicdn.com/t/font_1031158_u69w8yhxdu.woff2?t=1630033759944") format("woff2"), url("//at.alicdn.com/t/font_1031158_u69w8yhxdu.woff?t=1630033759944") format("woff"), url("//at.alicdn.com/t/font_1031158_u69w8yhxdu.ttf?t=1630033759944") format("truetype"); }
</style></defs><path d="M153.6 341.333333l375.466667 170.666667v460.8L153.6 802.133333V341.333333z m17.066667 26.504534v423.304533l341.333333 155.153067V522.990933L170.666667 367.837867z" fill="#C6E5FF" p-id="4594"></path><path d="M512 68.266667l375.466667 170.666666v460.8L512 529.066667V68.266667z m17.066667 26.504533v423.304533l341.333333 155.153067V249.924267L529.066667 94.7712z" fill="#C6E5FF" p-id="4595"></path><path d="M175.872 798.8736l708.266667-544.648533-10.410667-13.5168-708.266667 544.631466z" fill="#C6E5FF" p-id="4596"></path><path d="M887.466667 238.933333m-34.133334 0a34.133333 34.133333 0 1 0 68.266667 0 34.133333 34.133333 0 1 0-68.266667 0Z" fill="#1875F0" p-id="4597"></path><path d="M512 955.733333m-34.133333 0a34.133333 34.133333 0 1 0 68.266666 0 34.133333 34.133333 0 1 0-68.266666 0Z" fill="#1875F0" p-id="4598"></path><path d="M153.6 802.133333m-34.133333 0a34.133333 34.133333 0 1 0 68.266666 0 34.133333 34.133333 0 1 0-68.266666 0Z" fill="#1875F0" p-id="4599"></path><path d="M153.6 358.4m-34.133333 0a34.133333 34.133333 0 1 0 68.266666 0 34.133333 34.133333 0 1 0-68.266666 0Z" fill="#1875F0" p-id="4600"></path><path d="M512 85.333333m-34.133333 0a34.133333 34.133333 0 1 0 68.266666 0 34.133333 34.133333 0 1 0-68.266666 0Z" fill="#1875F0" p-id="4601"></path><path d="M887.466667 682.666667m-34.133334 0a34.133333 34.133333 0 1 0 68.266667 0 34.133333 34.133333 0 1 0-68.266667 0Z" fill="#1875F0" p-id="4602"></path><path d="M576.682667 568.0128H481.450667c-26.5216 0-48.128-21.998933-48.128-49.032533 0-25.019733 18.397867-45.960533 42.786133-48.708267a9.028267 9.028267 0 0 0 7.509333-6.0928A48.213333 48.213333 0 0 1 529.066667 431.172267c20.48 0 38.741333 13.2608 45.448533 33.006933a9.0112 9.0112 0 0 0 7.509333 6.0928c24.388267 2.730667 42.786133 23.688533 42.786134 48.708267 0 27.0336-21.6064 49.032533-48.128 49.032533z m6.314666-106.837333c-7.7312-22.784-28.928-39.168-53.930666-39.168s-46.199467 16.384-53.930667 39.168C446.549333 464.384 424.328533 489.028267 424.328533 518.997333c0 32.136533 25.565867 58.197333 57.122134 58.197334h95.197866c31.556267 0 57.122133-26.0608 57.122134-58.197334 0-29.952-22.2208-54.596267-50.7904-57.8048zM676.4544 375.466667H381.661867C368.810667 375.466667 358.4 385.877333 358.4 398.7456v201.693867c0 12.8512 10.410667 23.261867 23.261867 23.261866h294.792533c12.868267 0 23.278933-10.410667 23.278933-23.261866V398.7456C699.733333 385.877333 689.322667 375.466667 676.4544 375.466667zM397.192533 414.2592a7.765333 7.765333 0 1 0 0 15.530667 7.765333 7.765333 0 0 0 0-15.530667z m256 240.469333H404.9408a7.765333 7.765333 0 0 0 0 15.530667h248.251733a7.748267 7.748267 0 1 0 0-15.530667z m-256-209.442133a7.765333 7.765333 0 1 0 0 15.530667 7.765333 7.765333 0 0 0 0-15.530667z" fill="#1875F0" p-id="4603"></path></svg>